<svg width="256" height="256" viewBox="0 0 128 128" fill="none" xmlns="http://www.w3.org/2000/svg">
  <defs>
    <linearGradient id="g" x1="24" y1="18" x2="106" y2="110" gradientUnits="userSpaceOnUse">
      <stop offset="0" stop-color="#0B2A52" />
      <stop offset="0.52" stop-color="#1460A8" />
      <stop offset="1" stop-color="#10D1D9" />
    </linearGradient>
    <filter id="glow" x="-20" y="-20" width="168" height="168" filterUnits="userSpaceOnUse">
      <feGaussianBlur stdDeviation="7" result="blur" />
      <feColorMatrix
        in="blur"
        type="matrix"
        values="0 0 0 0 0.0627 0 0 0 0 0.8196 0 0 0 0 0.851 0 0 0 0.24 0"
      />
    </filter>
  </defs>
  <g filter="url(#glow)">
    <path
      d="M64 14L100 29V63C100 87.5 84.8 109 64 116C43.2 109 28 87.5 28 63V29L64 14Z"
      stroke="url(#g)"
      stroke-width="8"
      stroke-linecap="round"
      stroke-linejoin="round"
    />
  </g>
  <path
    d="M64 14L100 29V63C100 87.5 84.8 109 64 116C43.2 109 28 87.5 28 63V29L64 14Z"
    stroke="url(#g)"
    stroke-width="8"
    stroke-linecap="round"
    stroke-linejoin="round"
  />
  <path d="M64 31V46" stroke="url(#g)" stroke-width="6" stroke-linecap="round" />
  <path d="M44 38L54 49" stroke="url(#g)" stroke-width="6" stroke-linecap="round" />
  <path d="M84 38L74 49" stroke="url(#g)" stroke-width="6" stroke-linecap="round" />
  <path d="M38 60H52" stroke="url(#g)" stroke-width="6" stroke-linecap="round" />
  <path d="M76 60H90" stroke="url(#g)" stroke-width="6" stroke-linecap="round" />
  <path d="M50 82L58 72" stroke="url(#g)" stroke-width="6" stroke-linecap="round" />
  <path d="M78 82L70 72" stroke="url(#g)" stroke-width="6" stroke-linecap="round" />
</svg>
