<svg width="128" height="128" viewBox="0 0 128 128" fill="none" xmlns="http://www.w3.org/2000/svg">
  <circle cx="64" cy="64" r="64" fill="white"/>
  <!-- Outer arcs - top -->
  <path d="M22 64 C22 38 40 20 64 20 C88 20 106 38 106 64" stroke="#CC1818" stroke-width="3.5" fill="none" stroke-linecap="round"/>
  <path d="M32 64 C32 43 46 28 64 28 C82 28 96 43 96 64" stroke="#CC1818" stroke-width="3" fill="none" stroke-linecap="round" opacity="0.78"/>
  <path d="M42 64 C42 49 52 37 64 37 C76 37 86 49 86 64" stroke="#CC1818" stroke-width="2.5" fill="none" stroke-linecap="round" opacity="0.6"/>
  <path d="M52 64 C52 54 57 47 64 47 C71 47 76 54 76 64" stroke="#CC1818" stroke-width="2" fill="none" stroke-linecap="round" opacity="0.45"/>
  <!-- Outer arcs - bottom (mirror) -->
  <path d="M22 64 C22 90 40 108 64 108 C88 108 106 90 106 64" stroke="#CC1818" stroke-width="3.5" fill="none" stroke-linecap="round"/>
  <path d="M32 64 C32 85 46 100 64 100 C82 100 96 85 96 64" stroke="#CC1818" stroke-width="3" fill="none" stroke-linecap="round" opacity="0.78"/>
  <path d="M42 64 C42 79 52 91 64 91 C76 91 86 79 86 64" stroke="#CC1818" stroke-width="2.5" fill="none" stroke-linecap="round" opacity="0.6"/>
  <path d="M52 64 C52 74 57 81 64 81 C71 81 76 74 76 64" stroke="#CC1818" stroke-width="2" fill="none" stroke-linecap="round" opacity="0.45"/>
  <!-- Equatorial ring -->
  <ellipse cx="64" cy="64" rx="42" ry="13" stroke="#CC1818" stroke-width="4" fill="none"/>
  <ellipse cx="64" cy="64" rx="30" ry="9" stroke="#CC1818" stroke-width="2.5" fill="none" opacity="0.6"/>
</svg>
